# xmcd CD database file
#
# Track frame offsets:
#	150
#	28202
#	47555
#	71770
#	97567
#	124462
#	153420
#	178065
#	203437
#	227175
#	250095
#	270962
#
# Disc length: 3970 seconds
#
# Revision: 0
# Processed by: cddbd v1.5.2PL0 Copyright (c) Steve Scherf et al.
# Submitted via: CDex 1.70beta2
#
DISCID=9a0f800c
DTITLE=Tadashi Shigami - Song of Five Islands
DYEAR=1998
DGENRE=Jazz
TTITLE0=Song Of Five Islands
TTITLE1=Black And Tan Fantasy
TTITLE2=Pitter Panther Patter
TTITLE3=Sophisticated Lady
TTITLE4=Rockin' In Rhythm
TTITLE5=Serenade To Sweden
TTITLE6=Three And One
TTITLE7=Mood Indigo
TTITLE8=Hornin' In
TTITLE9=The Mooche
TTITLE10=Tricrotism
TTITLE11=Cotton Tail
EXTD=YEAR: 1998
EXTT0=
EXTT1=
EXTT2=
EXTT3=
EXTT4=
EXTT5=
EXTT6=
EXTT7=
EXTT8=
EXTT9=
EXTT10=
EXTT11=
PLAYORDER=
